<?xml version="1.0" standalone="no"?>
<!DOCTYPE svg PUBLIC "-//W3C//DTD SVG 20010904//EN"
 "http://www.w3.org/TR/2001/REC-SVG-20010904/DTD/svg10.dtd">
<svg version="1.0" xmlns="http://www.w3.org/2000/svg"
 width="512.000000pt" height="512.000000pt" viewBox="0 0 512.000000 512.000000"
 preserveAspectRatio="xMidYMid meet">
<metadata>
Created by potrace 1.11, written by Peter Selinger 2001-2013
</metadata>
<g transform="translate(0.000000,512.000000) scale(0.100000,-0.100000)"
fill="#000000" stroke="none">
<path d="M0 2560 l0 -2560 2560 0 2560 0 0 2560 0 2560 -2560 0 -2560 0 0
-2560z m5110 0 l0 -2550 -2550 0 -2550 0 0 2550 0 2550 2550 0 2550 0 0 -2550z"/>
<path d="M1305 3989 c-568 -38 -955 -374 -955 -829 0 -175 58 -325 187 -480
126 -151 238 -236 598 -450 388 -231 441 -265 488 -310 54 -54 60 -86 27 -150
-40 -79 -158 -140 -300 -155 -155 -16 -444 47 -653 143 -42 19 -79 33 -81 31
-2 -2 -59 -130 -126 -284 -67 -154 -124 -283 -126 -287 -8 -13 139 -80 271
-123 379 -125 775 -151 1090 -73 260 64 454 178 589 347 108 134 157 274 157
451 1 189 -45 314 -177 480 -135 171 -361 334 -804 580 -212 118 -290 169
-312 202 -72 111 34 250 209 273 119 16 388 -29 592 -99 41 -14 75 -25 77 -23
1 1 53 117 114 257 62 140 114 258 116 261 6 11 -147 92 -237 126 -244 92
-493 129 -744 112z"/>
<path d="M3645 3989 c-590 -40 -977 -393 -952 -869 9 -172 57 -286 186 -442
124 -149 237 -234 596 -448 388 -231 441 -265 488 -310 58 -58 62 -93 18 -161
-49 -78 -153 -129 -293 -144 -151 -16 -446 48 -651 143 -42 19 -79 33 -81 31
-2 -2 -58 -130 -126 -284 -67 -154 -124 -283 -126 -287 -8 -13 139 -80 271
-124 240 -78 461 -115 690 -115 440 0 785 136 989 390 108 134 157 274 157
451 1 189 -45 315 -177 480 -148 186 -351 329 -918 645 -148 83 -209 134 -219
182 -15 75 44 163 136 204 46 21 66 23 172 23 66 -1 161 -9 211 -17 73 -13
295 -75 365 -102 12 -4 24 14 52 77 19 46 71 165 115 264 l80 182 -75 43
c-238 136 -593 209 -908 188z"/>
</g>
</svg>
