<svg width="390" height="213" viewBox="0 0 390 213" xmlns="http://www.w3.org/2000/svg"><title>SUKA SUKA</title><desc>Created with Sketch.</desc><path d="M33.228 102.872c-5.088 0-10.776-.768-17.064-2.304-6.288-1.536-11.304-3.408-15.048-5.616l8.64-19.728c2.592 1.536 6.168 2.952 10.728 4.248 4.56 1.296 8.568 1.944 12.024 1.944 3.84 0 6.912-.792 9.216-2.376 2.304-1.584 3.456-3.336 3.456-5.256 0-1.248-.84-2.472-2.52-3.672-1.68-1.2-4.392-2.904-8.136-5.112l-4.464-2.592c-6.528-3.84-11.616-7.032-15.264-9.576-3.648-2.544-6.912-5.832-9.792-9.864-2.88-4.032-4.32-8.592-4.32-13.68 0-5.376 1.512-10.2 4.536-14.472 3.024-4.272 7.272-7.608 12.744-10.008 5.472-2.4 11.856-3.6 19.152-3.6 4.992 0 10.104.72 15.336 2.16 5.232 1.44 9.72 3.408 13.464 5.904l-7.776 17.712c-5.088-1.728-9-2.88-11.736-3.456-2.736-.576-5.736-.864-9-.864-2.88 0-5.208.672-6.984 2.016-1.776 1.344-2.664 2.976-2.664 4.896 0 1.44.744 2.712 2.232 3.816 1.488 1.104 3.96 2.568 7.416 4.392l5.184 2.88c6.048 3.456 11.088 6.648 15.12 9.576 4.032 2.928 7.464 6.384 10.296 10.368 2.832 3.984 4.248 8.472 4.248 13.464 0 5.568-1.584 10.512-4.752 14.832-3.168 4.32-7.704 7.728-13.608 10.224-5.904 2.496-12.792 3.744-20.664 3.744zm51.984-99.792h26.208v59.184c0 5.952 1.632 10.584 4.896 13.896 3.264 3.312 7.536 4.968 12.816 4.968 5.28 0 9.552-1.656 12.816-4.968 3.264-3.312 4.896-7.944 4.896-13.896v-59.184h26.208v60.48c0 8.352-1.824 15.48-5.472 21.384-3.648 5.904-8.784 10.392-15.408 13.464-6.624 3.072-14.304 4.608-23.04 4.608-8.736 0-16.416-1.536-23.04-4.608-6.624-3.072-11.76-7.56-15.408-13.464-3.648-5.904-5.472-13.032-5.472-21.384v-60.48zm135.648 68.544v29.376h-26.208v-97.92h26.208v33.984l39.312-36.144 20.304 14.688-33.264 31.104 39.6 54.288h-33.264l-25.056-36.576-7.632 7.2zm68.832 29.376l36.72-97.92h26.208l36.576 96.768-25.776 2.592-7.056-20.736h-33.84l-6.768 19.296h-26.064zm40.032-39.888h19.152l-9.792-26.64-9.36 26.64zm-296.496 150.76c-5.088 0-10.776-.768-17.064-2.304-6.288-1.536-11.304-3.408-15.048-5.616l8.64-19.728c2.592 1.536 6.168 2.952 10.728 4.248 4.56 1.296 8.568 1.944 12.024 1.944 3.84 0 6.912-.792 9.216-2.376 2.304-1.584 3.456-3.336 3.456-5.256 0-1.248-.84-2.472-2.52-3.672-1.68-1.2-4.392-2.904-8.136-5.112l-4.464-2.592c-6.528-3.84-11.616-7.032-15.264-9.576-3.648-2.544-6.912-5.832-9.792-9.864-2.88-4.032-4.32-8.592-4.32-13.68 0-5.376 1.512-10.2 4.536-14.472 3.024-4.272 7.272-7.608 12.744-10.008 5.472-2.4 11.856-3.6 19.152-3.6 4.992 0 10.104.72 15.336 2.16 5.232 1.44 9.72 3.408 13.464 5.904l-7.776 17.712c-5.088-1.728-9-2.88-11.736-3.456-2.736-.576-5.736-.864-9-.864-2.88 0-5.208.672-6.984 2.016-1.776 1.344-2.664 2.976-2.664 4.896 0 1.44.744 2.712 2.232 3.816 1.488 1.104 3.96 2.568 7.416 4.392l5.184 2.88c6.048 3.456 11.088 6.648 15.12 9.576 4.032 2.928 7.464 6.384 10.296 10.368 2.832 3.984 4.248 8.472 4.248 13.464 0 5.568-1.584 10.512-4.752 14.832-3.168 4.32-7.704 7.728-13.608 10.224-5.904 2.496-12.792 3.744-20.664 3.744zm51.984-99.792h26.208v59.184c0 5.952 1.632 10.584 4.896 13.896 3.264 3.312 7.536 4.968 12.816 4.968 5.28 0 9.552-1.656 12.816-4.968 3.264-3.312 4.896-7.944 4.896-13.896v-59.184h26.208v60.48c0 8.352-1.824 15.48-5.472 21.384-3.648 5.904-8.784 10.392-15.408 13.464-6.624 3.072-14.304 4.608-23.04 4.608-8.736 0-16.416-1.536-23.04-4.608-6.624-3.072-11.76-7.56-15.408-13.464-3.648-5.904-5.472-13.032-5.472-21.384v-60.48zm135.648 68.544v29.376h-26.208v-97.92h26.208v33.984l39.312-36.144 20.304 14.688-33.264 31.104 39.6 54.288h-33.264l-25.056-36.576-7.632 7.2zm68.832 29.376l36.72-97.92h26.208l36.576 96.768-25.776 2.592-7.056-20.736h-33.84l-6.768 19.296h-26.064zm40.032-39.888h19.152l-9.792-26.64-9.36 26.64z" fill="#fff"/></svg>